<?xml version="1.0" encoding="UTF-8"?>
<svg width="160px" height="161px" viewBox="0 0 160 161" version="1.1" xmlns="http://www.w3.org/2000/svg" xmlns:xlink="http://www.w3.org/1999/xlink">
    <title>编组 2</title>
    <g id="控件" stroke="none" stroke-width="1" fill="none" fill-rule="evenodd">
        <g id="lendoo_logo1" transform="translate(-632.000000, -459.000000)">
            <g id="编组-2" transform="translate(632.000000, 459.271903)">
                <path d="M75,132.728097 C108.137085,132.728097 135,108.327616 135,78.2280971 C135,48.1285782 108.137085,23.7280971 75,23.7280971 C41.862915,23.7280971 15,48.1285782 15,78.2280971 C15,108.327616 41.862915,132.728097 75,132.728097 Z" id="椭圆形" fill="#FFFFFF"></path>
                <path d="M80,0 C124.18278,-8.11624501e-15 160,35.81722 160,80 C160,124.18278 124.18278,160 80,160 C35.81722,160 5.41083001e-15,124.18278 0,80 C-5.41083001e-15,35.81722 35.81722,8.11624501e-15 80,0 Z M56.4487496,40 C54.9670071,40 53.4400897,40.0705294 51.9312423,40.2115882 C49.4104732,40.4231763 47.1788245,41.8513963 45.9681326,44.0289909 C44.8026157,46.1184238 44.7664757,48.6662976 45.8597125,50.8438923 L48.1997812,55.4459343 C45.3266466,58.3200066 43.0136828,61.4938287 41.3151,64.8968713 L39.5532722,64.8968713 C35.5597957,64.8968713 32.2439453,67.9472671 32,71.8351991 L32,83.0141059 C32.1626303,85.6236929 33.6985827,87.9070817 36.1109316,89.1148973 L40.7729992,91.4423668 C43.5919238,97.6489523 48.6063569,103.317751 54.903762,107.434904 L54.903762,110.353057 C54.903762,114.672982 58.5177679,120 62.9629951,120 L71.7269593,120 C73.9043978,120 76.0456963,117.053348 78.0785746,114.822856 C79.7229472,114.937467 82.8219572,115.052077 85.9119323,115.052077 C87.9719156,115.052077 89.6795334,114.99918 90.8811903,114.893386 C92.2996876,117.07098 94.3596709,120 97.0159653,120 L106.240715,120 C109.646916,120 112.10444,116.54201 112.989871,113.694386 C113.360307,112.416041 113.315132,111.358101 113.278992,110.643991 C113.215746,109.780006 113.242852,109.762373 113.405482,109.621315 C121.076209,102.727068 123.298823,99.2711281 126.506253,91.6892196 L126.515288,91.6627711 L126.524323,91.6363226 C127.52721,87.0166483 128.521061,81.5947021 127.68984,75.8818223 C126.479148,67.3125025 122.160411,59.4043958 115.519675,53.6209866 C113.107326,51.5139214 110.469102,49.6889737 107.686318,48.1902243 C100.910057,44.3816378 91.4865363,42.1070652 82.4786267,42.1070653 C78.9007609,42.1070653 75.3771052,42.450896 71.9889747,43.1209251 C67.6250626,41.0843893 62.2582639,40 56.4487496,40 Z M52.9996923,64.8038824 C54.8562552,63.7320392 57.1437448,63.7320392 59.0003077,64.8038824 C60.8568705,65.8757257 62.0003807,67.8565334 61.9999999,70 C62.0003807,72.1434666 60.8568705,74.1242743 59.0003077,75.1961176 C57.1437448,76.2679608 54.8562552,76.2679608 52.9996923,75.1961176 C51.1431295,74.1242743 49.9996193,72.1434666 49.9999999,70 C49.9996193,67.8565334 51.1431295,65.8757257 52.9996923,64.8038824 Z" id="形状结合" fill="#F1506C"></path>
            </g>
        </g>
    </g>
</svg>