<?xml version="1.0" encoding="UTF-8"?>
<svg width="20px" height="20px" viewBox="0 0 20 20" version="1.1" xmlns="http://www.w3.org/2000/svg" xmlns:xlink="http://www.w3.org/1999/xlink">
    <title>icon/icon_6</title>
    <g id="icon/icon_6" stroke="none" stroke-width="1" fill="none" fill-rule="evenodd">
        <g id="编组" transform="translate(3.000000, 2.000000)" fill="#000000" fill-rule="nonzero">
            <path d="M12.35,0 C13.275,0 14,0.725 14,1.65 L14,1.65 L14,16 L12.3,14.5 L11.325,13.6 L10.3,12.65 L10.725,14.125 L1.65,14.125 C0.725,14.125 0,13.375 0,12.475 L0,12.475 L0,1.65 C0,0.725 0.725,0 1.65,0 L1.65,0 Z M5.8,3.725 C5.8,3.725 4.7,3.7 3.55,4.575 C3.55,4.575 2.4,6.675 2.4,9.25 C2.4,9.25 3.075,10.425 4.85,10.475 C4.85,10.475 5.125,10.1 5.375,9.8 C4.35,9.5 3.975,8.85 3.975,8.85 C3.975,8.85 4.05,8.9 4.2,8.975 C4.2,8.975 4.2,9 4.225,9 C4.25,9.025 4.275,9.025 4.3,9.05 C4.5,9.175 4.7,9.25 4.875,9.325 C5.2,9.45 5.6,9.575 6.05,9.675 C6.65,9.775 7.35,9.825 8.125,9.675 C8.5,9.6 8.875,9.5 9.275,9.325 C9.55,9.225 9.875,9.075 10.2,8.85 C10.2,8.85 9.8,9.5 8.75,9.8 C8.975,10.1 9.275,10.45 9.275,10.45 C11.05,10.4 11.725,9.225 11.7,9.25 C11.7,6.675 10.55,4.575 10.55,4.575 C9.4,3.7 8.3,3.725 8.3,3.725 L8.3,3.725 L8.2,3.85 C9.575,4.275 10.2,4.875 10.2,4.875 C9.375,4.4 8.55,4.2 7.8,4.1 C7.225,4.05 6.675,4.05 6.175,4.125 C6.15,4.125 6.1,4.15 6.05,4.15 C5.75,4.175 5.075,4.275 4.225,4.65 C3.925,4.775 3.75,4.875 3.75,4.875 C3.75,4.875 4.425,4.25 5.875,3.825 L5.875,3.825 Z M8.475,6.7 C8.925,6.7 9.3,7.1 9.3,7.6 C9.3,8.1 8.925,8.5 8.475,8.5 C8.025,8.5 7.65,8.1 7.65,7.6 C7.65,7.1 8.025,6.7 8.475,6.7 Z M5.55,6.7 C6,6.7 6.375,7.1 6.375,7.6 C6.375,8.1 6,8.5 5.55,8.5 C5.1,8.5 4.725,8.1 4.725,7.6 C4.725,7.1 5.1,6.7 5.55,6.7 Z" id="形状结合"></path>
        </g>
    </g>
</svg>