<?xml version="1.0" encoding="UTF-8"?>
<svg width="512px" height="512px" viewBox="0 0 512 512" version="1.1" xmlns="http://www.w3.org/2000/svg" xmlns:xlink="http://www.w3.org/1999/xlink">
    <title>tpt</title>
    <defs>
        <circle id="path-1" cx="256" cy="256" r="256"></circle>
    </defs>
    <g id="tpt" stroke="none" stroke-width="1" fill="none" fill-rule="evenodd">
        <mask id="mask-2" fill="white">
            <use xlink:href="#path-1"></use>
        </mask>
        <use id="椭圆形" fill="#2980FE" fill-rule="nonzero" xlink:href="#path-1"></use>
        <g id="编组-3" mask="url(#mask-2)" fill="#FFFFFF" fill-rule="nonzero">
            <g transform="translate(112.000000, 120.000000)" id="路径">
                <path d="M123.042575,82.8 L114.639668,82.8 L114.639668,22.8 L3.90134995,22.8 C1.80062305,22.8 -2.17501337e-12,24.6 -2.17501337e-12,26.7 L-2.17501337e-12,111.3 L-2.17501337e-12,111.3 L-2.17501337e-12,111.3 C-2.17501337e-12,113.4 1.80062305,115.2 3.90134995,115.2 L46.2159917,115.2 L46.2159917,269.1 L46.2159917,269.1 L46.2159917,269.1 C46.2159917,271.2 48.0166147,273 50.1173416,273 L50.1173416,273 L50.1173416,273 L119.441329,273 C121.542056,273 123.342679,271.2 123.342679,269.1 L123.342679,269.1 L123.342679,269.1 L123.342679,82.8 L123.042575,82.8 Z" opacity="0.6"></path>
                <path d="M196.568017,-5.75539616e-13 L169.858775,-5.75539616e-13 L169.858775,-5.75539616e-13 L96.6334372,-5.75539616e-13 L96.6334372,-5.75539616e-13 C94.5327103,-5.75539616e-13 92.7320872,1.8 92.7320872,3.9 L92.7320872,246.3 L92.7320872,246.3 L92.7320872,246.3 C92.7320872,248.4 94.5327103,250.2 96.6334372,250.2 L96.6334372,250.2 L165.957425,250.2 C165.957425,250.2 165.957425,250.2 165.957425,250.2 C168.058152,250.2 169.858775,248.4 169.858775,246.3 L169.858775,184.8 L196.568017,184.8 C247.58567,184.8 289,143.4 289,92.4 C289,41.4 247.58567,-5.75539616e-13 196.568017,-5.75539616e-13 Z"></path>
            </g>
        </g>
    </g>
</svg>